<?xml version="1.0" encoding="UTF-8" standalone="no"?><!DOCTYPE svg PUBLIC "-//W3C//DTD SVG 1.1//EN" "http://www.w3.org/Graphics/SVG/1.1/DTD/svg11.dtd"><svg width="100%" height="100%" viewBox="0 0 50 50" version="1.1" xmlns="http://www.w3.org/2000/svg" xmlns:xlink="http://www.w3.org/1999/xlink" xml:space="preserve" xmlns:serif="http://www.serif.com/" style="fill-rule:evenodd;clip-rule:evenodd;stroke-linejoin:round;stroke-miterlimit:2;"><rect id="Artboard1" x="0" y="0" width="50" height="50" style="fill:none;"/><g id="Artboard11" serif:id="Artboard1"><path d="M45.018,26.813c0.487,-0.557 0.862,-1.265 1.127,-2.124c0.264,-0.858 0.397,-1.73 0.397,-2.617c0,-0.587 -0.061,-1.13 -0.183,-1.631c-0.121,-0.501 -0.304,-0.944 -0.547,-1.33c-0.315,-0.501 -0.712,-0.883 -1.191,-1.148c-0.479,-0.265 -1.019,-0.397 -1.62,-0.397l-5.75,0c0.787,-1.416 1.423,-2.75 1.91,-4.001c0.486,-1.252 0.829,-2.411 1.03,-3.476c0.2,-1.066 0.25,-2.039 0.15,-2.918c-0.1,-0.88 -0.343,-1.663 -0.73,-2.35c-0.558,-0.972 -1.273,-1.655 -2.145,-2.049c-0.873,-0.393 -1.659,-0.59 -2.36,-0.59c-0.272,0 -0.512,0.093 -0.719,0.279c-0.208,0.186 -0.333,0.415 -0.376,0.687c-0.085,0.715 -0.289,1.466 -0.611,2.253c-0.322,0.786 -0.744,1.584 -1.266,2.392c-0.522,0.808 -1.134,1.62 -1.834,2.435c-0.701,0.816 -1.488,1.617 -2.361,2.403c-0.829,0.744 -1.705,1.452 -2.628,2.124c-0.922,0.673 -1.874,1.298 -2.854,1.878c-0.979,0.579 -1.984,1.105 -3.014,1.577c-1.03,0.472 -2.067,0.887 -3.111,1.244c-0.272,-0.558 -0.672,-1.012 -1.202,-1.362c-0.529,-0.351 -1.122,-0.526 -1.78,-0.526l-6.587,0c-0.916,0 -1.695,0.322 -2.339,0.966c-0.644,0.643 -0.966,1.423 -0.966,2.338l0,19.761c0,0.915 0.322,1.695 0.966,2.339c0.644,0.643 1.423,0.965 2.339,0.965l6.587,0c0.686,0 1.308,-0.197 1.866,-0.59c0.558,-0.393 0.959,-0.89 1.202,-1.491c2.145,0.257 3.733,0.59 4.763,0.998c1.03,0.407 1.938,0.819 2.725,1.233c0.5,0.272 1.012,0.53 1.534,0.773c0.522,0.243 1.148,0.457 1.877,0.643c0.73,0.186 1.613,0.337 2.65,0.451c1.037,0.114 2.314,0.172 3.83,0.172c0.801,0 1.563,-0.101 2.285,-0.301c0.722,-0.2 1.362,-0.486 1.92,-0.858c0.544,-0.358 0.991,-0.79 1.341,-1.298c0.351,-0.508 0.583,-1.055 0.697,-1.641c0.43,-0.186 0.837,-0.48 1.223,-0.88c0.387,-0.401 0.73,-0.908 1.03,-1.523c0.286,-0.601 0.515,-1.252 0.687,-1.953c0.172,-0.701 0.257,-1.337 0.257,-1.909c0,-0.115 -0.003,-0.222 -0.01,-0.322c-0.008,-0.1 -0.018,-0.193 -0.033,-0.279c0.287,-0.215 0.551,-0.479 0.794,-0.794c0.243,-0.315 0.472,-0.68 0.687,-1.094c0.3,-0.601 0.533,-1.256 0.697,-1.964c0.165,-0.708 0.247,-1.391 0.247,-2.049c0,-0.457 -0.043,-0.879 -0.129,-1.265c-0.086,-0.387 -0.214,-0.73 -0.386,-1.03l-0.086,-0.151Zm-31.668,14.934l-6.587,0c-0.315,0 -0.58,-0.108 -0.794,-0.322c-0.215,-0.215 -0.322,-0.479 -0.322,-0.794l0,-19.761c0,-0.3 0.107,-0.558 0.322,-0.772c0.214,-0.215 0.479,-0.322 0.794,-0.322l6.587,0c0.3,0 0.557,0.107 0.772,0.322c0.215,0.214 0.322,0.472 0.322,0.772l0,19.761c0,0.315 -0.107,0.579 -0.322,0.794c-0.215,0.214 -0.472,0.322 -0.772,0.322Zm30.402,-16.993c-0.171,0.343 -0.332,0.583 -0.482,0.718c-0.151,0.136 -0.261,0.204 -0.333,0.204c-0.3,0 -0.558,0.108 -0.772,0.322c-0.215,0.215 -0.322,0.472 -0.322,0.773c0,0.3 0.107,0.557 0.322,0.772c0.214,0.215 0.472,0.322 0.772,0.322c0.043,0 0.086,0.007 0.129,0.021c0.043,0.015 0.086,0.065 0.128,0.15c0.072,0.129 0.129,0.301 0.172,0.515c0.043,0.215 0.064,0.451 0.064,0.708c0,0.501 -0.064,1.023 -0.193,1.567c-0.128,0.543 -0.307,1.037 -0.536,1.48c-0.215,0.444 -0.422,0.755 -0.622,0.933c-0.201,0.179 -0.351,0.269 -0.451,0.269c-0.3,0 -0.558,0.107 -0.772,0.321c-0.215,0.215 -0.322,0.473 -0.322,0.773c0,0.186 0.046,0.361 0.139,0.526c0.093,0.164 0.219,0.296 0.376,0.396c0.028,0.344 -0.043,0.905 -0.215,1.685c-0.171,0.779 -0.472,1.477 -0.901,2.092c-0.157,0.229 -0.315,0.407 -0.472,0.536c-0.157,0.129 -0.3,0.193 -0.429,0.193c-0.315,0 -0.579,0.107 -0.794,0.322c-0.214,0.215 -0.322,0.472 -0.322,0.772c0,0.959 -0.436,1.667 -1.308,2.125c-0.873,0.457 -1.81,0.686 -2.811,0.686c-1.373,0 -2.525,-0.046 -3.455,-0.139c-0.929,-0.093 -1.72,-0.222 -2.37,-0.387c-0.651,-0.164 -1.205,-0.354 -1.663,-0.568c-0.458,-0.215 -0.908,-0.444 -1.352,-0.687c-0.429,-0.229 -0.88,-0.457 -1.352,-0.686c-0.472,-0.229 -1.026,-0.454 -1.662,-0.676c-0.637,-0.222 -1.384,-0.429 -2.243,-0.622c-0.858,-0.193 -1.881,-0.362 -3.068,-0.505l0,-18.001c1.159,-0.372 2.303,-0.815 3.433,-1.33c1.13,-0.515 2.235,-1.084 3.315,-1.706c1.08,-0.622 2.128,-1.302 3.143,-2.038c1.016,-0.737 1.981,-1.513 2.897,-2.328c0.872,-0.787 1.67,-1.588 2.392,-2.403c0.723,-0.815 1.359,-1.634 1.91,-2.457c0.55,-0.822 1.015,-1.641 1.394,-2.457c0.379,-0.815 0.669,-1.616 0.869,-2.403c0.301,0.086 0.605,0.236 0.912,0.451c0.308,0.215 0.576,0.515 0.805,0.901c0.171,0.329 0.314,0.79 0.429,1.384c0.114,0.594 0.086,1.377 -0.086,2.349c-0.172,0.973 -0.536,2.153 -1.094,3.541c-0.558,1.387 -1.402,3.032 -2.532,4.934c-0.1,0.172 -0.154,0.358 -0.161,0.558c-0.007,0.201 0.039,0.386 0.14,0.558c0.1,0.172 0.236,0.308 0.407,0.408c0.172,0.1 0.358,0.15 0.558,0.15l7.638,0c0.215,0 0.397,0.039 0.547,0.118c0.151,0.079 0.283,0.211 0.397,0.397c0.129,0.2 0.229,0.454 0.301,0.762c0.071,0.307 0.107,0.647 0.107,1.019c0,0.472 -0.054,0.944 -0.161,1.416c-0.107,0.472 -0.254,0.894 -0.44,1.266Z" style="fill-rule:nonzero;"/></g></svg>