<?xml version="1.0" encoding="iso-8859-1"?>
<!-- Generator: Adobe Illustrator 19.0.0, SVG Export Plug-In . SVG Version: 6.00 Build 0)  -->
<svg version="1.1" id="Layer_1" xmlns="http://www.w3.org/2000/svg" xmlns:xlink="http://www.w3.org/1999/xlink" x="0px" y="0px"
	 viewBox="0 0 511.999 511.999" style="enable-background:new 0 0 511.999 511.999;" xml:space="preserve">
<path style="fill:#BEE9F4;" d="M55.885,267.603c-12.181,0-22.148,9.829-22.148,21.846v123.795c0,12.015,9.966,21.847,22.148,21.847
	h42.958V267.603H55.885z M92.797,402.729c0,1.778-1.454,3.234-3.234,3.234H66.501c-1.779,0-3.234-1.456-3.234-3.234V299.965
	c0-1.778,1.454-3.234,3.234-3.234h23.062c1.779,0,3.234,1.456,3.234,3.234V402.729z"/>
<rect x="87.531" y="230.87" style="fill:#FBD33B;" width="203.41" height="259.688"/>
<rect x="87.531" y="230.87" style="opacity:0.1;enable-background:new    ;" width="26.122" height="259.688"/>
<path style="fill:#FFF0C0;" d="M107.866,191.495h3.3c6.631-9.685,17.864-16.053,30.601-16.053c6.424,0,12.463,1.624,17.721,4.469
	c6.887-6.885,16.452-11.157,27.03-11.157c15.675,0,29.128,9.371,34.925,22.741h49.152c11.188,0,20.342,8.177,20.342,18.172
	c0,0.954,0,16.724,0,29.429c0,8.751,0,16.051,0,16.051v21.403c0,11.037-7.801,20.065-17.336,20.065
	c-9.536,0-17.337-9.029-17.337-20.065v-21.403h-1.173v9.364c0,11.036-7.801,20.065-17.336,20.065
	c-9.535,0-17.336-9.03-17.336-20.065v-9.364H87.525c0,0,0-43.869,0-45.479C87.525,199.673,96.679,191.495,107.866,191.495z"/>
<path id="SVGCleanerId_0" style="fill:#FFAA0E;" d="M136.018,433.217c0,5.929-4.1,10.779-9.112,10.779
	c-5.011,0-9.112-4.851-9.112-10.779V318.518c0-5.929,4.1-10.779,9.112-10.779c5.011,0,9.112,4.851,9.112,10.779V433.217z"/>
<path id="SVGCleanerId_1" style="fill:#FFAA0E;" d="M177.671,433.217c0,5.929-4.1,10.779-9.112,10.779s-9.112-4.851-9.112-10.779
	V318.518c0-5.929,4.1-10.779,9.112-10.779s9.112,4.851,9.112,10.779V433.217z"/>
<path id="SVGCleanerId_2" style="fill:#FFAA0E;" d="M219.324,433.217c0,5.929-4.1,10.779-9.112,10.779
	c-5.01,0-9.11-4.851-9.11-10.779V318.518c0-5.929,4.1-10.779,9.11-10.779c5.011,0,9.112,4.851,9.112,10.779V433.217z"/>
<path id="SVGCleanerId_3" style="fill:#FFAA0E;" d="M260.976,433.217c0,5.929-4.1,10.779-9.112,10.779s-9.112-4.851-9.112-10.779
	V318.518c0-5.929,4.1-10.779,9.112-10.779s9.112,4.851,9.112,10.779V433.217z"/>
<g>
	<path id="SVGCleanerId_0_1_" style="fill:#FFAA0E;" d="M136.018,433.217c0,5.929-4.1,10.779-9.112,10.779
		c-5.011,0-9.112-4.851-9.112-10.779V318.518c0-5.929,4.1-10.779,9.112-10.779c5.011,0,9.112,4.851,9.112,10.779V433.217z"/>
</g>
<g>
	<path id="SVGCleanerId_1_1_" style="fill:#FFAA0E;" d="M177.671,433.217c0,5.929-4.1,10.779-9.112,10.779
		s-9.112-4.851-9.112-10.779V318.518c0-5.929,4.1-10.779,9.112-10.779s9.112,4.851,9.112,10.779V433.217z"/>
</g>
<g>
	<path id="SVGCleanerId_2_1_" style="fill:#FFAA0E;" d="M219.324,433.217c0,5.929-4.1,10.779-9.112,10.779
		c-5.01,0-9.11-4.851-9.11-10.779V318.518c0-5.929,4.1-10.779,9.11-10.779c5.011,0,9.112,4.851,9.112,10.779V433.217z"/>
</g>
<g>
	<path id="SVGCleanerId_3_1_" style="fill:#FFAA0E;" d="M260.976,433.217c0,5.929-4.1,10.779-9.112,10.779
		s-9.112-4.851-9.112-10.779V318.518c0-5.929,4.1-10.779,9.112-10.779s9.112,4.851,9.112,10.779V433.217z"/>
</g>
<path style="fill:#965930;" d="M440.017,181.209l-11.11-153.722h-61.304l-11.11,153.721c-21.876,5.254-38.245,24.791-38.245,47.926
	v266.423c0,9.043,7.501,16.441,16.668,16.441h126.678c9.167,0,16.668-7.399,16.668-16.441V229.135
	C478.262,206,461.892,186.463,440.017,181.209z"/>
<path style="opacity:0.1;enable-background:new    ;" d="M340.666,506.876V240.453c0-23.137,16.369-42.674,38.245-47.926
	l11.11-153.722h39.702l-0.818-11.317h-61.304l-11.11,153.721c-21.876,5.254-38.245,24.791-38.245,47.926v266.423
	c0,9.043,7.501,16.441,16.668,16.441h6.598C340.971,510.384,340.666,508.665,340.666,506.876z"/>
<rect x="318.244" y="317.43" style="fill:#FFAA0E;" width="160.016" height="87.144"/>
<ellipse style="fill:#FBD33B;" cx="398.252" cy="357.71" rx="48.065" ry="71.523"/>
<path style="fill:#FFFFFF;" d="M398.254,407.671c-12.515,0-26.51-21.367-26.51-49.963c0-28.597,13.996-49.965,26.51-49.965
	c12.515,0,26.511,21.368,26.511,49.965C424.765,386.304,410.769,407.671,398.254,407.671z"/>
<path style="fill:#554141;" d="M350.916,27.905c0,5.929,4.85,10.778,10.779,10.778h73.118c5.928,0,10.779-4.85,10.779-10.778V10.778
	c0-5.927-4.85-10.778-10.779-10.778h-73.118c-5.929,0-10.779,4.851-10.779,10.778L350.916,27.905L350.916,27.905z"/>
<path style="opacity:0.1;enable-background:new    ;" d="M384.448,27.905V10.778c0-5.927,4.85-10.778,10.779-10.778h-33.532
	c-5.929,0-10.779,4.851-10.779,10.778v17.127c0,5.929,4.85,10.778,10.779,10.778h33.532
	C389.298,38.683,384.448,33.834,384.448,27.905z"/>
<g>
	<path style="fill:#FBD33B;" d="M150.371,225.028c-2.058,0-4.086-0.836-5.548-2.287c-1.452-1.463-2.288-3.48-2.288-5.549
		c0-2.058,0.836-4.084,2.288-5.538c1.463-1.462,3.48-2.299,5.548-2.299c2.058,0,4.075,0.837,5.538,2.299
		c1.463,1.453,2.299,3.48,2.299,5.538c0,2.069-0.836,4.086-2.299,5.549C154.446,224.193,152.429,225.028,150.371,225.028z"/>
	<path style="fill:#FBD33B;" d="M220.431,227.192c-2.069,0-4.086-0.836-5.538-2.299c-1.463-1.462-2.299-3.48-2.299-5.538
		c0-2.069,0.836-4.086,2.299-5.548c1.452-1.453,3.469-2.288,5.538-2.288c2.058,0,4.086,0.836,5.538,2.288
		c1.463,1.462,2.299,3.48,2.299,5.548c0,2.058-0.836,4.075-2.299,5.538C224.517,226.356,222.49,227.192,220.431,227.192z"/>
</g>
<g>
	<path style="fill:#FFAA0E;" d="M260.315,225.028c-2.069,0-4.086-0.836-5.548-2.287c-1.452-1.463-2.288-3.48-2.288-5.549
		c0-2.058,0.836-4.084,2.288-5.538c1.463-1.462,3.48-2.299,5.548-2.299c2.058,0,4.075,0.837,5.538,2.299
		c1.463,1.453,2.299,3.48,2.299,5.538c0,2.069-0.836,4.086-2.299,5.549C264.39,224.193,262.373,225.028,260.315,225.028z"/>
	<path style="fill:#FFAA0E;" d="M111.563,221.8c-2.058,0-4.086-0.836-5.538-2.299c-1.463-1.452-2.299-3.478-2.299-5.538
		c0-2.069,0.836-4.086,2.299-5.538c1.452-1.463,3.48-2.299,5.538-2.299s4.075,0.836,5.538,2.299
		c1.463,1.452,2.299,3.469,2.299,5.538c0,2.059-0.836,4.075-2.299,5.538C115.638,220.965,113.622,221.8,111.563,221.8z"/>
	<path style="fill:#FFAA0E;" d="M184.863,204.549c-2.069,0-4.086-0.836-5.548-2.288c-1.452-1.462-2.288-3.478-2.288-5.548
		c0-2.058,0.836-4.075,2.288-5.538c1.463-1.463,3.48-2.299,5.548-2.299c2.058,0,4.086,0.836,5.538,2.299
		c1.452,1.462,2.299,3.48,2.299,5.538c0,2.069-0.846,4.086-2.299,5.548C188.938,203.713,186.921,204.549,184.863,204.549z"/>
</g>
<rect x="318.244" y="459.222" style="fill:#D2873C;" width="160.016" height="15.673"/>
<path style="fill:#BEE9F4;" d="M87.525,467.055v34.166c0,5.928,4.85,10.778,10.778,10.778h181.857
	c5.928,0,10.778-4.851,10.778-10.778v-34.166H87.525z"/>
<path style="opacity:0.1;enable-background:new    ;" d="M113.648,188.291c-0.883,1.022-1.717,2.088-2.481,3.204h-3.3
	c-11.188,0-20.342,8.177-20.342,18.172c0,1.61,0,45.479,0,45.479h26.122V188.291z"/>
<g style="opacity:0.1;">
	<path d="M113.648,467.055H87.525v34.166c0,5.928,4.85,10.778,10.778,10.778h15.344V467.055z"/>
</g>
<g>
</g>
<g>
</g>
<g>
</g>
<g>
</g>
<g>
</g>
<g>
</g>
<g>
</g>
<g>
</g>
<g>
</g>
<g>
</g>
<g>
</g>
<g>
</g>
<g>
</g>
<g>
</g>
<g>
</g>
</svg>
