<?xml version="1.0" encoding="iso-8859-1"?>
<!-- Generator: Adobe Illustrator 19.0.0, SVG Export Plug-In . SVG Version: 6.00 Build 0)  -->
<svg version="1.1" id="Layer_1" xmlns="http://www.w3.org/2000/svg" xmlns:xlink="http://www.w3.org/1999/xlink" x="0px" y="0px"
	 viewBox="0 0 512 512" style="enable-background:new 0 0 512 512;" xml:space="preserve">
<path style="fill:#FFD41D;" d="M139.84,61.669v120.64c0,43.02,6.704,85.777,19.87,126.731l0,0
	c13.167,40.955,19.87,83.712,19.87,126.731v45.743c0,16.837,34.213,30.486,76.418,30.486s76.418-13.648,76.418-30.486v-45.743
	c0-43.02,6.704-85.777,19.87-126.731l0,0c13.167-40.955,19.87-83.712,19.87-126.731V61.669"/>
<path style="fill:#EFC71D;" d="M218.75,435.776v72.357c-23.369-5.215-39.169-15.175-39.169-26.619v-45.738
	c0-21.509-1.672-42.96-4.992-64.139c-3.32-21.191-8.288-42.112-14.881-62.597c-13.162-40.958-19.873-83.717-19.873-126.736V61.667
	h59.548v120.637c0,43.018,3.261,85.778,9.689,126.736c3.214,20.485,5.627,41.405,7.24,62.597
	C217.937,392.816,218.75,414.267,218.75,435.776z"/>
<path style="fill:#DCE8EA;" d="M372.164,61.667v68.283c0,25.594-52.013,46.338-116.164,46.338c-20.556,0-39.863-2.131-56.616-5.863
	c-35.531-7.923-59.548-23.087-59.548-40.475V61.667C139.837,61.667,372.164,61.667,372.164,61.667z"/>
<path style="fill:#CEDADB;" d="M199.384,61.667v108.759c-35.531-7.923-59.548-23.087-59.548-40.475V61.667L199.384,61.667
	L199.384,61.667z"/>
<path style="fill:#DCE8EA;" d="M332.421,451.264v30.245c0,16.835-34.212,30.48-76.418,30.48c-13.527,0-26.23-1.401-37.25-3.862
	c-23.369-5.215-39.169-15.175-39.169-26.619v-30.245c0,11.443,15.799,21.415,39.169,26.63c11.019,2.461,23.722,3.862,37.25,3.862
	C298.209,481.756,332.421,468.1,332.421,451.264z"/>
<path style="fill:#F2F2F2;" d="M372.164,61.667c0,25.594-52.013,46.338-116.164,46.338c-16.376,0-31.964-1.354-46.091-3.791
	c-41.229-7.111-70.073-23.487-70.073-42.547C139.837,36.072,191.85,0,256.001,0C320.151,0,372.164,36.072,372.164,61.667z"/>
<path style="fill:#E6E6E6;" d="M193.497,73.44c0,12.632,4.911,28.48,16.413,30.775c-41.229-7.111-70.073-23.487-70.073-42.547
	C139.837,36.072,191.85,0,256.001,0C256.001,0,193.497,21.639,193.497,73.44z"/>
<g>
	<path style="fill:#DCE8EA;" d="M300.634,237.22c-3.626,0-6.925-2.279-8.238-5.651c-1.465-3.765-0.082-8.195,3.255-10.465
		c6.45-4.388,15.354,1.534,13.586,9.229C308.326,234.309,304.729,237.22,300.634,237.22z"/>
	<path style="fill:#DCE8EA;" d="M259.429,299.617c-3.856,0-7.322-2.579-8.452-6.262c-1.084-3.535,0.25-7.545,3.256-9.707
		c6.448-4.634,15.593,1.271,13.799,9.079C267.12,296.707,263.525,299.617,259.429,299.617z"/>
	<path style="fill:#DCE8EA;" d="M213.514,236.043c-3.482,0-6.689-2.109-8.088-5.291c-1.623-3.694-0.452-8.193,2.795-10.602
		c6.168-4.576,15.146,0.708,14.027,8.341C221.621,232.77,217.847,236.043,213.514,236.043z"/>
	<path style="fill:#DCE8EA;" d="M182.905,278.438c-3.932,0-7.451-2.71-8.509-6.482c-0.996-3.552,0.421-7.499,3.458-9.596
		c6.2-4.281,14.941,0.991,13.783,8.54C190.981,275.159,187.235,278.438,182.905,278.438z"/>
	<path style="fill:#DCE8EA;" d="M229.996,360.836c-3.78,0-7.19-2.478-8.384-6.057c-1.176-3.526,0.071-7.575,3.05-9.807
		c6.269-4.697,15.385,0.799,14.025,8.552C237.956,357.697,234.243,360.836,229.996,360.836z"/>
	<path style="fill:#DCE8EA;" d="M290.039,436.183c-3.936,0-7.45-2.685-8.511-6.469c-0.995-3.551,0.421-7.503,3.458-9.596
		c6.647-4.583,15.74,1.778,13.549,9.596C297.478,433.49,293.972,436.183,290.039,436.183z"/>
	<path style="fill:#DCE8EA;" d="M327.712,294.908c-8.086,0-11.921-10.514-5.606-15.651c6.249-5.082,15.783,0.514,14.278,8.459
		C335.606,291.832,331.909,294.908,327.712,294.908z"/>
</g>
<path style="fill:#CEDADB;" d="M218.753,477.895v30.233c-23.369-5.215-39.169-15.175-39.169-26.619v-30.245
	C179.585,462.708,195.384,472.68,218.753,477.895z"/>
<g>
</g>
<g>
</g>
<g>
</g>
<g>
</g>
<g>
</g>
<g>
</g>
<g>
</g>
<g>
</g>
<g>
</g>
<g>
</g>
<g>
</g>
<g>
</g>
<g>
</g>
<g>
</g>
<g>
</g>
</svg>
