<?xml version="1.0" encoding="iso-8859-1"?>
<!-- Generator: Adobe Illustrator 19.0.0, SVG Export Plug-In . SVG Version: 6.00 Build 0)  -->
<svg version="1.1" id="Layer_1" xmlns="http://www.w3.org/2000/svg" xmlns:xlink="http://www.w3.org/1999/xlink" x="0px" y="0px"
	 viewBox="0 0 512.001 512.001" style="enable-background:new 0 0 512.001 512.001;" xml:space="preserve">
<path style="fill:#41B6D6;" d="M348.2,490.443h-55.455V277.555h-26.729v212.888h-55.455c-5.966,0-10.803,4.826-10.803,10.779
	s4.837,10.779,10.804,10.779h55.455h26.729h55.455c5.966,0,10.803-4.826,10.803-10.779S354.166,490.443,348.2,490.443z"/>
<path style="fill:#BAE8F4;" d="M434.036,113.526L279.38,315.844L124.724,113.516c-2.073-2.712-0.139-6.623,3.274-6.623l302.765,0.01
	C434.176,106.903,436.109,110.814,434.036,113.526z"/>
<path style="fill:#7AC9E5;" d="M266.413,298.881l12.967,16.964l154.657-202.318c2.073-2.712,0.139-6.623-3.274-6.623l-17.597-0.001
	L266.413,298.881z"/>
<g>
	<path style="fill:#FFD066;" d="M469.859,21.214l-4.502,15.783c-0.624,2.187-2.901,3.455-5.088,2.834l-48.784-13.854
		c-12.274-3.486-25.058,3.622-28.553,15.874l-46.059,161.474l-23.75-6.745l46.566-163.252c6.95-24.365,32.37-38.497,56.777-31.566
		l50.556,14.357C469.213,16.742,470.484,19.024,469.859,21.214z"/>
	<ellipse style="fill:#FFD066;" cx="120.393" cy="106.891" rx="78.41" ry="78.27"/>
</g>
<path style="fill:#FCBE42;" d="M120.393,28.626c-43.302,0-78.405,35.041-78.405,78.267c0,43.225,35.103,78.267,78.405,78.267
	s78.405-35.041,78.405-78.267S163.695,28.626,120.393,28.626z M120.393,165.108c-32.208,0-58.318-26.064-58.318-58.216
	s26.11-58.216,58.318-58.216s58.318,26.064,58.318,58.216C178.711,139.044,152.601,165.108,120.393,165.108z"/>
<path style="fill:#68DD92;" d="M359.749,176.79l-77.096,100.848c-1.649,2.158-4.898,2.157-6.548,0l-9.892-12.942l-67.194-87.906
	c-2.073-2.712-0.139-6.623,3.274-6.623h154.182C359.889,170.166,361.822,174.078,359.749,176.79z"/>
<path style="fill:#57C17B;" d="M338.966,170.166l-72.751,94.529l9.892,12.942c1.649,2.158,4.898,2.158,6.548,0l77.096-100.848
	c2.073-2.712,0.139-6.623-3.274-6.623H338.966z"/>
<path style="fill:#F24E5E;" d="M166.529,99.393h-28.006l19.793-19.758c2.931-2.926,2.936-7.675,0.009-10.606
	c-2.927-2.932-7.674-2.937-10.607-0.009l-19.825,19.789V60.838c0-4.143-3.358-7.5-7.5-7.5s-7.5,3.357-7.5,7.5v27.97L93.069,69.02
	c-2.932-2.927-7.681-2.922-10.607,0.009c-2.926,2.932-2.922,7.681,0.009,10.606l19.793,19.758H74.257c-4.142,0-7.5,3.357-7.5,7.5
	s3.358,7.5,7.5,7.5h28.007l-19.793,19.758c-2.931,2.926-2.936,7.675-0.009,10.606c1.465,1.468,3.386,2.201,5.308,2.201
	c1.917,0,3.834-0.73,5.299-2.192l19.824-19.789v27.97c0,4.143,3.358,7.5,7.5,7.5s7.5-3.357,7.5-7.5v-27.971l19.824,19.789
	c1.464,1.462,3.381,2.192,5.299,2.192c1.921,0,3.843-0.734,5.308-2.201c2.926-2.932,2.922-7.681-0.009-10.606l-19.793-19.758h28.006
	c4.142,0,7.5-3.357,7.5-7.5S170.671,99.393,166.529,99.393z"/>
<g>
</g>
<g>
</g>
<g>
</g>
<g>
</g>
<g>
</g>
<g>
</g>
<g>
</g>
<g>
</g>
<g>
</g>
<g>
</g>
<g>
</g>
<g>
</g>
<g>
</g>
<g>
</g>
<g>
</g>
</svg>
