<?xml version="1.0" encoding="iso-8859-1"?>
<!-- Generator: Adobe Illustrator 19.0.0, SVG Export Plug-In . SVG Version: 6.00 Build 0)  -->
<svg version="1.1" id="Layer_1" xmlns="http://www.w3.org/2000/svg" xmlns:xlink="http://www.w3.org/1999/xlink" x="0px" y="0px"
	 viewBox="0 0 512 512" style="enable-background:new 0 0 512 512;" xml:space="preserve">
<path style="fill:#7AC9E5;" d="M352.107,512H180.075c-2.208,0-3.997-1.79-3.997-3.997V132.288c0-2.208,1.79-3.997,3.997-3.997
	h172.032c2.208,0,3.997,1.79,3.997,3.997v375.715C356.104,510.21,354.315,512,352.107,512z"/>
<path style="fill:#41B6D6;" d="M335.529,128.291V512h16.581c2.206,0,3.995-1.791,3.995-4V132.291c0-2.209-1.788-4-3.995-4H335.529z"
	/>
<ellipse style="fill:#FCBE42;" cx="176.08" cy="128.29" rx="63.08" ry="63.27"/>
<ellipse style="fill:#FFD066;" cx="176.08" cy="128.29" rx="46.18" ry="46.32"/>
<path style="fill:#BAE8F4;" d="M399,0v25.101h-55.578c-12.934,0-23.419,10.516-23.419,23.488v170.958h-25.027V46.707
	C294.977,20.911,315.826,0,341.545,0H399z"/>
<path style="fill:#FFD066;" d="M196.653,487.399V223.545c0-2.208,1.79-3.997,3.997-3.997h130.881c2.208,0,3.997,1.79,3.997,3.997
	v263.854c0,2.208-1.79,3.997-3.997,3.997h-130.88C198.443,491.397,196.653,489.607,196.653,487.399z"/>
<path style="fill:#FCBE42;" d="M314.954,219.548v271.848h16.581c2.206,0,3.995-1.791,3.995-4V223.548c0-2.209-1.788-4-3.995-4
	H314.954z"/>
<path style="fill:#FF9C4A;" d="M219.085,476.384c-4.137,0-7.49-3.358-7.49-7.5V241.601c0-4.142,3.353-7.5,7.49-7.5
	s7.49,3.358,7.49,7.5v227.283C226.575,473.026,223.222,476.384,219.085,476.384z"/>
<path style="fill:#F24E5E;" d="M213.195,120.791h-19.056l13.485-13.525c2.923-2.931,2.919-7.68-0.009-10.606
	c-2.926-2.926-7.668-2.923-10.592,0.009l-13.455,13.495v-19.1c0-4.142-3.353-7.5-7.49-7.5s-7.49,3.358-7.49,7.5v19.1l-13.455-13.495
	c-2.922-2.931-7.664-2.936-10.592-0.009s-2.932,7.675-0.009,10.606l13.485,13.525h-19.055c-4.137,0-7.49,3.358-7.49,7.5
	s3.353,7.5,7.49,7.5h19.055l-13.485,13.525c-2.923,2.931-2.919,7.68,0.009,10.606c1.462,1.462,3.376,2.192,5.292,2.192
	c1.918,0,3.838-0.734,5.3-2.201l13.455-13.495v19.1c0,4.142,3.353,7.5,7.49,7.5s7.49-3.358,7.49-7.5v-19.1l13.455,13.495
	c1.463,1.467,3.381,2.201,5.3,2.201c1.914,0,3.83-0.731,5.292-2.192c2.928-2.927,2.932-7.675,0.009-10.606l-13.485-13.525h19.056
	c4.137,0,7.49-3.358,7.49-7.5S217.332,120.791,213.195,120.791z"/>
<g>
</g>
<g>
</g>
<g>
</g>
<g>
</g>
<g>
</g>
<g>
</g>
<g>
</g>
<g>
</g>
<g>
</g>
<g>
</g>
<g>
</g>
<g>
</g>
<g>
</g>
<g>
</g>
<g>
</g>
</svg>
