<?xml version="1.0" encoding="UTF-8"?>
<svg width="20px" height="20px" viewBox="0 0 20 20" version="1.1" xmlns="http://www.w3.org/2000/svg" xmlns:xlink="http://www.w3.org/1999/xlink">
    <!-- Generator: Sketch 43.2 (39069) - http://www.bohemiancoding.com/sketch -->
    <title>Annoyed</title>
    <desc>Created with Sketch.</desc>
    <defs>
        <circle id="path-1" cx="10" cy="10" r="10"></circle>
    </defs>
    <g id="Symbols" stroke="none" stroke-width="1" fill="none" fill-rule="evenodd">
        <g id="Annoyed">
            <g id="Oval-4">
                <use fill="#FFFFFF" fill-rule="evenodd" xlink:href="#path-1"></use>
                <circle stroke="#631f0e" stroke-width="0.936" cx="10" cy="10" r="9.532"></circle>
            </g>
            <path d="M13.9498208,10.5645161 C14.4407406,10.5645161 14.8387097,10.0770842 14.8387097,9.47580645 C14.8387097,8.8745287 14.4407406,8.38709677 13.9498208,8.38709677 C13.458901,8.38709677 12.7168459,8.59781478 12.2580645,10.0026015 C13.048188,9.47580645 13.458901,10.5645161 13.9498208,10.5645161 Z" id="Oval-6" fill="#631f0e"></path>
            <path d="M6.85304659,10.5645161 C7.34396637,10.5645161 7.74193548,10.0770842 7.74193548,9.47580645 C7.74193548,8.8745287 7.34396637,8.38709677 6.85304659,8.38709677 C6.36212682,8.38709677 5.62007168,8.59781478 5.16129032,10.0026015 C5.95141378,9.47580645 6.36212682,10.5645161 6.85304659,10.5645161 Z" id="Oval-6" fill="#631f0e"></path>
            <path d="M7.09677419,12.9032258 C7.09677419,12.9032258 7.95271256,13.5483871 9.66458928,13.5483871 C11.376466,13.5483871 12.2324044,12.9032258 12.2324044,12.9032258 C12.2324044,12.9032258 11.6098729,14.516129 9.66458928,14.516129 C7.71930569,14.516129 7.09677419,12.9032258 7.09677419,12.9032258 Z" id="Path-3" fill="#631f0e" transform="translate(9.664589, 13.709677) scale(1, -1) translate(-9.664589, -13.709677) "></path>
            <path d="M4.59832707,7.95856515 C4.59832707,7.95856515 4.88960152,7.1822045 5.72293485,6.76553784 C6.55626818,6.34887117 7.51499374,6.70856515 7.51499374,6.70856515" id="Path-2" stroke="#631f0e" stroke-width="0.5" stroke-linecap="round" transform="translate(6.056660, 7.261449) rotate(12.000000) translate(-6.056660, -7.261449) "></path>
            <path d="M12.9316604,7.95856515 C12.9316604,7.95856515 13.2229349,7.1822045 14.0562682,6.76553784 C14.8896015,6.34887117 15.8483271,6.70856515 15.8483271,6.70856515" id="Path-2" stroke="#631f0e" stroke-width="0.5" stroke-linecap="round" transform="translate(14.389994, 7.261449) scale(-1, 1) rotate(12.000000) translate(-14.389994, -7.261449) "></path>
        </g>
    </g>
</svg>
