<?xml version="1.0" encoding="UTF-8"?>
<svg width="20px" height="20px" viewBox="0 0 20 20" version="1.1" xmlns="http://www.w3.org/2000/svg" xmlns:xlink="http://www.w3.org/1999/xlink">
    <!-- Generator: Sketch 43.2 (39069) - http://www.bohemiancoding.com/sketch -->
    <title>Relaxed</title>
    <desc>Created with Sketch.</desc>
    <defs>
        <circle id="path-1" cx="10" cy="10" r="10"></circle>
        <path d="M6.39784946,11.3978495 C7.52688172,11.3978495 8.38709677,9.84490072 8.38709677,9.67741935 C8.38709677,9.50993799 7.52688172,10.5388653 6.39784946,10.5376344 C5.2688172,10.5364035 4.51612903,9.41341347 4.51612903,9.67741935 C4.51612903,9.94142524 5.2688172,11.3978495 6.39784946,11.3978495 Z" id="path-2"></path>
        <path d="M13.4946237,11.3978495 C14.6236559,11.3978495 15.483871,9.84490072 15.483871,9.67741935 C15.483871,9.50993799 14.6236559,10.5388653 13.4946237,10.5376344 C12.3655914,10.5364035 11.6129032,9.41341347 11.6129032,9.67741935 C11.6129032,9.94142524 12.3655914,11.3978495 13.4946237,11.3978495 Z" id="path-3"></path>
    </defs>
    <g id="Symbols" stroke="none" stroke-width="1" fill="none" fill-rule="evenodd">
        <g id="Relaxed">
            <g id="Oval-4">
                <use fill="#FFFFFF" fill-rule="evenodd" xlink:href="#path-1"></use>
                <circle stroke="#631f0e" stroke-width="0.936" cx="10" cy="10" r="9.532"></circle>
            </g>
            <path d="M3.95603518,8.60159933 C3.95603518,8.60159933 4.24730963,7.82523868 5.08064296,7.40857201 C5.91397629,6.99190534 6.74796995,7.04758306 6.74796995,7.04758306" id="Path-2" stroke="#631f0e" stroke-width="0.5" stroke-linecap="round" transform="translate(5.352003, 7.823353) rotate(2.000000) translate(-5.352003, -7.823353) "></path>
            <path d="M12.9882932,8.60159933 C12.9882932,8.60159933 13.2795677,7.82523868 14.112901,7.40857201 C14.9462344,6.99190534 15.780228,7.04758306 15.780228,7.04758306" id="Path-2" stroke="#631f0e" stroke-width="0.5" stroke-linecap="round" transform="translate(14.384261, 7.823353) scale(-1, 1) rotate(2.000000) translate(-14.384261, -7.823353) "></path>
            <g id="Oval-6">
                <use fill="#906993" fill-rule="evenodd" xlink:href="#path-2"></use>
                <path stroke="#631f0e" stroke-width="0.936" d="M6.39784946,10.9298495 C5.77621005,10.9298495 4.98412903,9.97467265 4.98412903,9.67741935 C4.98412903,9.94851671 4.69556192,10.1864108 4.40138273,10.0817348 C4.35884458,10.0665987 4.3710402,10.074976 4.38767723,10.0883375 C4.41155659,10.1075154 4.54194095,10.2158814 4.58229889,10.2486937 C4.68343085,10.3309171 4.77594479,10.4018502 4.87407596,10.4706444 C5.35417739,10.8072162 5.8478872,11.0050351 6.39733924,11.0056341 C6.95410611,11.0062411 7.47234647,10.8165055 7.98341882,10.4941481 C8.15701284,10.3846542 8.16388308,10.3796482 8.49310195,10.1327177 C8.536784,10.0999541 8.56222554,10.0822704 8.55660545,10.0851711 C8.32959073,10.2023393 7.91909677,10.1412179 7.91909677,9.67741935 C7.91909677,9.88212725 7.00705904,10.9298495 6.39784946,10.9298495 Z"></path>
            </g>
            <g id="Oval-6" transform="translate(13.548387, 10.517539) scale(-1, 1) translate(-13.548387, -10.517539) ">
                <use fill="#906993" fill-rule="evenodd" xlink:href="#path-3"></use>
                <path stroke="#631f0e" stroke-width="0.936" d="M13.4946237,10.9298495 C12.8729842,10.9298495 12.0809032,9.97467265 12.0809032,9.67741935 C12.0809032,9.94851671 11.7923361,10.1864108 11.4981569,10.0817348 C11.4556188,10.0665987 11.4678144,10.074976 11.4844514,10.0883375 C11.5083308,10.1075154 11.6387151,10.2158814 11.6790731,10.2486937 C11.780205,10.3309171 11.872719,10.4018502 11.9708502,10.4706444 C12.4509516,10.8072162 12.9446614,11.0050351 13.4941134,11.0056341 C14.0508803,11.0062411 14.5691207,10.8165055 15.080193,10.4941481 C15.253787,10.3846542 15.2606573,10.3796482 15.5898761,10.1327177 C15.6335582,10.0999541 15.6589997,10.0822704 15.6533796,10.0851711 C15.4263649,10.2023393 15.015871,10.1412179 15.015871,9.67741935 C15.015871,9.88212725 14.1038332,10.9298495 13.4946237,10.9298495 Z"></path>
            </g>
            <path d="M7.09677419,13.5483871 C7.09677419,13.5483871 8.07430903,14.2095797 10.0293787,14.2095797 C11.9844484,14.2095797 12.9619832,13.5483871 12.9619832,13.5483871 C12.9619832,13.5483871 12.2510135,15.2013686 10.0293787,15.2013686 C7.80774388,15.2013686 7.09677419,13.5483871 7.09677419,13.5483871 Z" id="Path-3" fill="#631f0e"></path>
        </g>
    </g>
</svg>
