<?xml version="1.0" encoding="UTF-8"?>
<svg width="20px" height="20px" viewBox="0 0 20 20" version="1.1" xmlns="http://www.w3.org/2000/svg" xmlns:xlink="http://www.w3.org/1999/xlink">
    <!-- Generator: Sketch 43.2 (39069) - http://www.bohemiancoding.com/sketch -->
    <title>Smileyface</title>
    <desc>Created with Sketch.</desc>
    <defs>
        <circle id="path-1" cx="10" cy="10" r="10"></circle>
    </defs>
    <g id="Symbols" stroke="none" stroke-width="1" fill="none" fill-rule="evenodd">
        <g id="Smileyface/Stressed" transform="translate(-10.000000, -10.000000)">
            <g id="Smileyface" transform="translate(10.000000, 10.000000)">
                <g id="Oval-4">
                    <use fill="#FFFFFF" fill-rule="evenodd" xlink:href="#path-1"></use>
                    <circle stroke="#631f0e" stroke-width="0.936" cx="10" cy="10" r="9.532"></circle>
                </g>
                <path d="M13.9498208,10.5645161 C14.4407406,10.5645161 14.8387097,10.0770842 14.8387097,9.47580645 C14.8387097,8.8745287 14.4407406,8.38709677 13.9498208,8.38709677 C13.458901,8.38709677 12.7168459,8.59781478 12.2580645,10.0026015 C13.048188,9.47580645 13.458901,10.5645161 13.9498208,10.5645161 Z" id="Oval-6" fill="#631f0e"></path>
                <path d="M6.85304659,10.5645161 C7.34396637,10.5645161 7.74193548,10.0770842 7.74193548,9.47580645 C7.74193548,8.8745287 7.34396637,8.38709677 6.85304659,8.38709677 C6.36212682,8.38709677 5.62007168,8.59781478 5.16129032,10.0026015 C5.95141378,9.47580645 6.36212682,10.5645161 6.85304659,10.5645161 Z" id="Oval-6" fill="#631f0e"></path>
                <path d="M5.80781169,13.655914 C5.84853988,13.5135833 7.01177129,14.3224843 7.21556306,14.1773712 C7.41935484,14.0322581 8.1364141,12.9032258 8.41796437,12.9032258 C8.69951465,12.9032258 10.1598192,14.1773712 10.1598192,14.1773712 C10.1598192,14.1773712 11.4503044,12.9032258 11.6129032,12.9032258 C11.775502,12.9032258 12.577703,14.1397849 12.7404644,14.1935484 C12.9032258,14.2473118 13.5851152,13.3333333 13.8666655,13.3333333 C14.1482158,13.3333333 13.0220147,15.1612903 12.7404644,15.1612903 C12.4589141,15.1612903 11.775502,13.8709677 11.6129032,13.8709677 C11.4503044,13.8709677 10.4413695,15.1612903 10.1598192,15.1612903 C9.87826897,15.1612903 8.69951465,13.8709677 8.41796437,13.8709677 C8.1364141,13.8709677 7.21556306,15.1612903 6.93401279,15.1612903 C6.65246251,15.1612903 5.7670835,13.7982447 5.80781169,13.655914 Z" id="Path-3" fill="#631f0e"></path>
                <path d="M4.58241078,7.31173099 C4.58241078,7.31173099 5.27147621,7.40480181 6.10480954,6.98813515 C6.93814288,6.57146848 7.49907745,6.06173099 7.49907745,6.06173099" id="Path-2" stroke="#631f0e" stroke-width="0.5" stroke-linecap="round" transform="translate(6.040744, 6.691168) rotate(-3.000000) translate(-6.040744, -6.691168) "></path>
                <path d="M12.3243463,7.31173099 C12.3243463,7.31173099 13.0134117,7.40480181 13.846745,6.98813515 C14.6800784,6.57146848 15.2410129,6.06173099 15.2410129,6.06173099" id="Path-2" stroke="#631f0e" stroke-width="0.5" stroke-linecap="round" transform="translate(13.782680, 6.691168) scale(-1, 1) rotate(-3.000000) translate(-13.782680, -6.691168) "></path>
            </g>
        </g>
    </g>
</svg>
