<?xml version="1.0" encoding="UTF-8"?>
<svg width="20px" height="20px" viewBox="0 0 20 20" version="1.1" xmlns="http://www.w3.org/2000/svg" xmlns:xlink="http://www.w3.org/1999/xlink">
    <!-- Generator: Sketch 43.2 (39069) - http://www.bohemiancoding.com/sketch -->
    <title>Tired</title>
    <desc>Created with Sketch.</desc>
    <defs>
        <circle id="path-1" cx="10" cy="10" r="10"></circle>
    </defs>
    <g id="Symbols" stroke="none" stroke-width="1" fill="none" fill-rule="evenodd">
        <g id="Tired">
            <g id="Oval-4">
                <use fill="#FFFFFF" fill-rule="evenodd" xlink:href="#path-1"></use>
                <circle stroke="#631f0e" stroke-width="0.936" cx="10" cy="10" r="9.532"></circle>
            </g>
            <path d="M10,16.1290323 C11.2903226,16.1290323 11.9354839,15.1612903 11.6129032,14.1935484 C11.2903226,13.2258065 10.6451613,12.9032258 10,12.9032258 C9.35483871,12.9032258 8.70967742,13.2258065 8.38709677,14.1935484 C8.06451613,15.1612903 8.70967742,16.1290323 10,16.1290323 Z" id="Oval-7" fill="#631f0e"></path>
            <path d="M6.39784946,10.7526882 C7.52688172,10.7526882 8.38709677,9.19973943 8.38709677,9.03225806 C8.38709677,8.8647767 7.52688172,9.89370402 6.39784946,9.89247312 C5.2688172,9.89124222 4.51612903,8.76825218 4.51612903,9.03225806 C4.51612903,9.29626394 5.2688172,10.7526882 6.39784946,10.7526882 Z" id="Oval-6" fill="#631f0e"></path>
            <path d="M13.4946237,10.7526882 C14.6236559,10.7526882 15.483871,9.19973943 15.483871,9.03225806 C15.483871,8.8647767 14.6236559,9.89370402 13.4946237,9.89247312 C12.3655914,9.89124222 11.6129032,8.76825218 11.6129032,9.03225806 C11.6129032,9.29626394 12.3655914,10.7526882 13.4946237,10.7526882 Z" id="Oval-6" fill="#631f0e" transform="translate(13.548387, 9.872377) scale(-1, 1) translate(-13.548387, -9.872377) "></path>
        </g>
    </g>
</svg>
