<?xml version="1.0" encoding="UTF-8"?>
<svg width="20px" height="24px" viewBox="0 0 20 24" version="1.1" xmlns="http://www.w3.org/2000/svg" xmlns:xlink="http://www.w3.org/1999/xlink">
    <!-- Generator: Sketch 43.2 (39069) - http://www.bohemiancoding.com/sketch -->
    <title>Icon</title>
    <desc>Created with Sketch.</desc>
    <defs></defs>
    <g id="Symbols" stroke="none" stroke-width="1" fill="none" fill-rule="evenodd">
        <g id="Sessies" transform="translate(-28.000000, -10.000000)" fill="#29356C">
            <path d="M41.3333333,10 L34.6666667,10 L34.6666667,12.2222222 L41.3333333,12.2222222 L41.3333333,10 L41.3333333,10 Z M36.8888889,24.4444444 L39.1111111,24.4444444 L39.1111111,17.7777778 L36.8888889,17.7777778 L36.8888889,24.4444444 L36.8888889,24.4444444 Z M45.8111111,17.1 L47.3888889,15.5222222 C46.9111111,14.9555556 46.3888889,14.4222222 45.8222222,13.9555556 L44.2444444,15.5333333 C42.5222222,14.1555556 40.3555556,13.3333333 38,13.3333333 C32.4777778,13.3333333 28,17.8111111 28,23.3333333 C28,28.8555556 32.4666667,33.3333333 38,33.3333333 C43.5333333,33.3333333 48,28.8555556 48,23.3333333 C48,20.9777778 47.1777778,18.8111111 45.8111111,17.1 L45.8111111,17.1 Z M38,31.1111111 C33.7,31.1111111 30.2222222,27.6333333 30.2222222,23.3333333 C30.2222222,19.0333333 33.7,15.5555556 38,15.5555556 C42.3,15.5555556 45.7777778,19.0333333 45.7777778,23.3333333 C45.7777778,27.6333333 42.3,31.1111111 38,31.1111111 L38,31.1111111 Z" id="Icon"></path>
        </g>
    </g>
</svg>