<?xml version="1.0" encoding="UTF-8"?>
<svg width="25px" height="25px" viewBox="0 0 25 25" version="1.1" xmlns="http://www.w3.org/2000/svg" xmlns:xlink="http://www.w3.org/1999/xlink">
    <!-- Generator: Sketch 43.2 (39069) - http://www.bohemiancoding.com/sketch -->
    <title>Icon</title>
    <desc>Created with Sketch.</desc>
    <defs></defs>
    <g id="Symbols" stroke="none" stroke-width="1" fill="none" fill-rule="evenodd">
        <g id="Profiel" transform="translate(-25.000000, -9.000000)" fill="#29356C">
            <path d="M37.3333333,11.9291667 C39.1216667,11.9291667 40.5708333,13.3783333 40.5708333,15.1666667 C40.5708333,16.955 39.1216667,18.4041667 37.3333333,18.4041667 C35.545,18.4041667 34.0958333,16.955 34.0958333,15.1666667 C34.0958333,13.3783333 35.545,11.9291667 37.3333333,11.9291667 L37.3333333,11.9291667 Z M37.3333333,25.8041667 C41.9120833,25.8041667 46.7375,28.055 46.7375,29.0416667 L46.7375,30.7375 L27.9291667,30.7375 L27.9291667,29.0416667 C27.9291667,28.055 32.7545833,25.8041667 37.3333333,25.8041667 L37.3333333,25.8041667 Z M37.3333333,9 C33.92625,9 31.1666667,11.7595833 31.1666667,15.1666667 C31.1666667,18.57375 33.92625,21.3333333 37.3333333,21.3333333 C40.7404167,21.3333333 43.5,18.57375 43.5,15.1666667 C43.5,11.7595833 40.7404167,9 37.3333333,9 L37.3333333,9 Z M37.3333333,22.875 C33.2170833,22.875 25,24.9408333 25,29.0416667 L25,33.6666667 L49.6666667,33.6666667 L49.6666667,29.0416667 C49.6666667,24.9408333 41.4495833,22.875 37.3333333,22.875 L37.3333333,22.875 Z" id="Icon"></path>
        </g>
    </g>
</svg>